<mxfile host="Electron" modified="2024-05-24T19:55:08.079Z" agent="Mozilla/5.0 (Windows NT 10.0; Win64; x64) AppleWebKit/537.36 (KHTML, like Gecko) draw.io/24.4.0 Chrome/120.0.6099.109 Electron/28.1.0 Safari/537.36" etag="FqxzOWMpI2hUm1nN7BPw" version="24.4.0" type="device" pages="3">
  <diagram id="ek9SvoUbZJLgTX0v-QCz" name="diagram">
    <mxGraphModel dx="1587" dy="1625" grid="1" gridSize="10" guides="1" tooltips="1" connect="1" arrows="1" fold="1" page="1" pageScale="1" pageWidth="827" pageHeight="1169" math="0" shadow="0">
      <root>
        <mxCell id="0" />
        <mxCell id="1" parent="0" />
        <mxCell id="oE_vKOwjUFU0yLn5oKaH-2" value="" style="rounded=0;whiteSpace=wrap;html=1;strokeColor=none;" vertex="1" parent="1">
          <mxGeometry x="-718" y="-280" width="1078" height="1200" as="geometry" />
        </mxCell>
        <mxCell id="N_aPm0FDeAfyOkNH4oF6-164" style="edgeStyle=orthogonalEdgeStyle;rounded=0;orthogonalLoop=1;jettySize=auto;html=1;exitX=0.514;exitY=0.841;exitDx=0;exitDy=0;fillColor=#0050ef;startArrow=none;startFill=0;endArrow=classic;endFill=1;elbow=vertical;curved=1;strokeColor=#0000FF;exitPerimeter=0;opacity=50;" parent="1" source="N_aPm0FDeAfyOkNH4oF6-28" target="N_aPm0FDeAfyOkNH4oF6-17" edge="1">
          <mxGeometry relative="1" as="geometry">
            <mxPoint x="-600" y="283.99199999999996" as="sourcePoint" />
            <mxPoint x="-632.75" y="470.1300000000001" as="targetPoint" />
          </mxGeometry>
        </mxCell>
        <mxCell id="N_aPm0FDeAfyOkNH4oF6-1" value="" style="rounded=1;arcSize=10;dashed=0;fillColor=none;gradientColor=none;strokeWidth=2;" parent="1" vertex="1">
          <mxGeometry x="-680" y="20" width="1000" height="860" as="geometry" />
        </mxCell>
        <mxCell id="N_aPm0FDeAfyOkNH4oF6-2" value="" style="rounded=1;arcSize=10;dashed=0;fillColor=none;gradientColor=none;strokeWidth=2;" parent="1" vertex="1">
          <mxGeometry x="-620" y="80" width="880" height="740" as="geometry" />
        </mxCell>
        <mxCell id="N_aPm0FDeAfyOkNH4oF6-3" value="" style="rounded=1;arcSize=10;dashed=1;strokeColor=#F59D56;fillColor=none;gradientColor=none;dashPattern=8 4;strokeWidth=2;" parent="1" vertex="1">
          <mxGeometry x="-559.5" y="200.25" width="319.5" height="559.75" as="geometry" />
        </mxCell>
        <mxCell id="N_aPm0FDeAfyOkNH4oF6-5" value="" style="rounded=1;arcSize=10;dashed=1;strokeColor=#F59D56;fillColor=none;gradientColor=none;dashPattern=8 4;strokeWidth=2;" parent="1" vertex="1">
          <mxGeometry x="-120" y="200.25" width="320" height="559.75" as="geometry" />
        </mxCell>
        <mxCell id="N_aPm0FDeAfyOkNH4oF6-6" value="&lt;span&gt;vpc&lt;/span&gt;&lt;span&gt;&lt;br&gt;10.0.0.0/16&lt;/span&gt;" style="dashed=0;html=1;shape=mxgraph.aws3.virtual_private_cloud;fillColor=#F58536;gradientColor=none;dashed=0;labelPosition=center;verticalLabelPosition=bottom;align=center;verticalAlign=top;labelBackgroundColor=#ffffff;labelBorderColor=#FFFFFF;shadow=1;" parent="1" vertex="1">
          <mxGeometry x="-650" y="213.38" width="52" height="36" as="geometry" />
        </mxCell>
        <mxCell id="N_aPm0FDeAfyOkNH4oF6-7" value="&lt;font color=&quot;#ff8000&quot;&gt;&lt;b&gt;us-east-1&lt;/b&gt;&lt;/font&gt;" style="dashed=0;html=1;shape=mxgraph.aws3.cloud;fillColor=#F58536;gradientColor=none;dashed=0;shadow=1;labelPosition=center;verticalLabelPosition=bottom;align=center;verticalAlign=top;" parent="1" vertex="1">
          <mxGeometry x="-598" width="52" height="36" as="geometry" />
        </mxCell>
        <mxCell id="N_aPm0FDeAfyOkNH4oF6-11" value="us-east-1a" style="text;html=1;strokeColor=none;fillColor=none;align=center;verticalAlign=middle;whiteSpace=wrap;rounded=0;fontStyle=1;fontColor=#FF8000;" parent="1" vertex="1">
          <mxGeometry x="-560" y="180.25" width="320" height="20" as="geometry" />
        </mxCell>
        <mxCell id="N_aPm0FDeAfyOkNH4oF6-12" value="us-east-1c" style="text;html=1;strokeColor=none;fillColor=none;align=center;verticalAlign=middle;whiteSpace=wrap;rounded=0;fontStyle=1;fontColor=#FF8000;" parent="1" vertex="1">
          <mxGeometry x="-120.83" y="180.25" width="320.83" height="20" as="geometry" />
        </mxCell>
        <mxCell id="czcv2t2Blam9nqMaoSHN-26" style="edgeStyle=orthogonalEdgeStyle;rounded=0;orthogonalLoop=1;jettySize=auto;html=1;exitX=0.5;exitY=1;exitDx=0;exitDy=0;exitPerimeter=0;strokeColor=#0000FF;opacity=50;" edge="1" parent="1" source="N_aPm0FDeAfyOkNH4oF6-17" target="czcv2t2Blam9nqMaoSHN-11">
          <mxGeometry relative="1" as="geometry" />
        </mxCell>
        <mxCell id="czcv2t2Blam9nqMaoSHN-46" style="edgeStyle=orthogonalEdgeStyle;rounded=0;orthogonalLoop=1;jettySize=auto;html=1;exitX=0.855;exitY=0.145;exitDx=0;exitDy=0;exitPerimeter=0;entryX=1;entryY=0.75;entryDx=0;entryDy=0;curved=1;strokeColor=#FF3333;opacity=50;" edge="1" parent="1" source="N_aPm0FDeAfyOkNH4oF6-17" target="N_aPm0FDeAfyOkNH4oF6-28">
          <mxGeometry relative="1" as="geometry">
            <Array as="points">
              <mxPoint x="-80" y="126" />
              <mxPoint x="-80" y="-51" />
            </Array>
          </mxGeometry>
        </mxCell>
        <mxCell id="N_aPm0FDeAfyOkNH4oF6-17" value="&lt;span&gt;igw&lt;/span&gt;" style="outlineConnect=0;dashed=0;verticalLabelPosition=bottom;verticalAlign=top;align=center;html=1;shape=mxgraph.aws3.internet_gateway;fillColor=#F58534;gradientColor=none;fontColor=#000000;fontSize=12;labelBackgroundColor=#ffffff;whiteSpace=wrap;labelBorderColor=#FFFFFF;shadow=1;labelPosition=center;" parent="1" vertex="1">
          <mxGeometry x="-200" y="120" width="40.12" height="40" as="geometry" />
        </mxCell>
        <mxCell id="N_aPm0FDeAfyOkNH4oF6-28" value="Internet" style="aspect=fixed;perimeter=ellipsePerimeter;html=1;align=center;shadow=0;dashed=0;spacingTop=3;image;image=img/lib/active_directory/internet_cloud.svg;fontSize=12;fontColor=#000000;labelPosition=center;verticalLabelPosition=bottom;verticalAlign=top;" parent="1" vertex="1">
          <mxGeometry x="-222.5" y="-90" width="85" height="53.55" as="geometry" />
        </mxCell>
        <mxCell id="czcv2t2Blam9nqMaoSHN-6" value="Public subnet&lt;div&gt;&lt;div&gt;sn-pub-az1a&lt;/div&gt;&lt;div&gt;10.0.1.0/24&lt;/div&gt;&lt;/div&gt;" style="points=[[0,0],[0.25,0],[0.5,0],[0.75,0],[1,0],[1,0.25],[1,0.5],[1,0.75],[1,1],[0.75,1],[0.5,1],[0.25,1],[0,1],[0,0.75],[0,0.5],[0,0.25]];outlineConnect=0;gradientColor=none;html=1;whiteSpace=wrap;fontSize=12;fontStyle=0;container=1;pointerEvents=0;collapsible=0;recursiveResize=0;shape=mxgraph.aws4.group;grIcon=mxgraph.aws4.group_security_group;grStroke=0;strokeColor=#7AA116;fillColor=#F2F6E8;verticalAlign=top;align=left;spacingLeft=30;fontColor=#248814;dashed=0;" vertex="1" parent="1">
          <mxGeometry x="-520" y="239.38" width="240" height="160.62" as="geometry" />
        </mxCell>
        <mxCell id="czcv2t2Blam9nqMaoSHN-1" value="&amp;nbsp; ngw-az1a&amp;nbsp;&amp;nbsp;" style="outlineConnect=0;dashed=0;verticalLabelPosition=middle;verticalAlign=middle;align=right;html=1;shape=mxgraph.aws3.vpc_nat_gateway;fillColor=#F58534;gradientColor=none;strokeColor=#CCCCCC;labelBackgroundColor=#f2f6e8;labelBorderColor=none;shadow=1;labelPosition=left;" vertex="1" parent="czcv2t2Blam9nqMaoSHN-6">
          <mxGeometry x="124.66999999999996" y="80.86000000000001" width="40.02" height="41.76" as="geometry" />
        </mxCell>
        <mxCell id="czcv2t2Blam9nqMaoSHN-7" value="Public subnet&lt;div&gt;&lt;div&gt;sn-pub-az1c&lt;/div&gt;&lt;div&gt;10.0.3.0/24&lt;/div&gt;&lt;/div&gt;" style="points=[[0,0],[0.25,0],[0.5,0],[0.75,0],[1,0],[1,0.25],[1,0.5],[1,0.75],[1,1],[0.75,1],[0.5,1],[0.25,1],[0,1],[0,0.75],[0,0.5],[0,0.25]];outlineConnect=0;gradientColor=none;html=1;whiteSpace=wrap;fontSize=12;fontStyle=0;container=1;pointerEvents=0;collapsible=0;recursiveResize=0;shape=mxgraph.aws4.group;grIcon=mxgraph.aws4.group_security_group;grStroke=0;strokeColor=#7AA116;fillColor=#F2F6E8;verticalAlign=top;align=left;spacingLeft=30;fontColor=#248814;dashed=0;" vertex="1" parent="1">
          <mxGeometry x="-80.82999999999998" y="239.38" width="240" height="160.62" as="geometry" />
        </mxCell>
        <mxCell id="czcv2t2Blam9nqMaoSHN-8" value="&amp;nbsp; ngw-az1c&amp;nbsp;&amp;nbsp;" style="outlineConnect=0;dashed=0;verticalLabelPosition=middle;verticalAlign=middle;align=left;html=1;shape=mxgraph.aws3.vpc_nat_gateway;fillColor=#F58534;gradientColor=none;strokeColor=#CCCCCC;labelBackgroundColor=#f2f6e8;labelBorderColor=none;shadow=1;labelPosition=right;" vertex="1" parent="czcv2t2Blam9nqMaoSHN-7">
          <mxGeometry x="85.49999999999996" y="80.86" width="40.02" height="41.76" as="geometry" />
        </mxCell>
        <mxCell id="czcv2t2Blam9nqMaoSHN-9" value="Private subnet&lt;br&gt;&lt;div&gt;sn-priv-az1c&lt;/div&gt;&lt;div&gt;10.0.4.0/24&lt;/div&gt;" style="points=[[0,0],[0.25,0],[0.5,0],[0.75,0],[1,0],[1,0.25],[1,0.5],[1,0.75],[1,1],[0.75,1],[0.5,1],[0.25,1],[0,1],[0,0.75],[0,0.5],[0,0.25]];outlineConnect=0;gradientColor=none;html=1;whiteSpace=wrap;fontSize=12;fontStyle=0;container=1;pointerEvents=0;collapsible=0;recursiveResize=0;shape=mxgraph.aws4.group;grIcon=mxgraph.aws4.group_security_group;grStroke=0;strokeColor=#00A4A6;fillColor=#E6F6F7;verticalAlign=top;align=left;spacingLeft=30;fontColor=#147EBA;dashed=0;" vertex="1" parent="1">
          <mxGeometry x="-80.83" y="440.23" width="240.83" height="279.77" as="geometry" />
        </mxCell>
        <mxCell id="czcv2t2Blam9nqMaoSHN-10" value="Private subnet&lt;br&gt;&lt;div&gt;sn-priv-az1a&lt;/div&gt;&lt;div&gt;10.0.2.0/24&lt;/div&gt;" style="points=[[0,0],[0.25,0],[0.5,0],[0.75,0],[1,0],[1,0.25],[1,0.5],[1,0.75],[1,1],[0.75,1],[0.5,1],[0.25,1],[0,1],[0,0.75],[0,0.5],[0,0.25]];outlineConnect=0;gradientColor=none;html=1;whiteSpace=wrap;fontSize=12;fontStyle=0;container=1;pointerEvents=0;collapsible=0;recursiveResize=0;shape=mxgraph.aws4.group;grIcon=mxgraph.aws4.group_security_group;grStroke=0;strokeColor=#00A4A6;fillColor=#E6F6F7;verticalAlign=top;align=left;spacingLeft=30;fontColor=#147EBA;dashed=0;" vertex="1" parent="1">
          <mxGeometry x="-520.8299999999999" y="440.23" width="240.83" height="279.77" as="geometry" />
        </mxCell>
        <mxCell id="czcv2t2Blam9nqMaoSHN-15" value="Auto Scaling Group&lt;br&gt;ec2-asg" style="sketch=0;outlineConnect=0;gradientColor=none;html=1;whiteSpace=wrap;fontSize=12;fontStyle=0;shape=mxgraph.aws4.groupCenter;grIcon=mxgraph.aws4.group_auto_scaling_group;grStroke=0;strokeColor=#879196;fillColor=#ECEFEF;verticalAlign=top;align=center;fontColor=#879196;dashed=0;spacingTop=25;labelBorderColor=none;" vertex="1" parent="czcv2t2Blam9nqMaoSHN-10">
          <mxGeometry x="40.83" y="79.77" width="559.17" height="160.23" as="geometry" />
        </mxCell>
        <mxCell id="czcv2t2Blam9nqMaoSHN-21" value="app-dynamicsite&lt;br&gt;(app server)" style="outlineConnect=0;dashed=0;verticalLabelPosition=bottom;verticalAlign=top;align=center;html=1;shape=mxgraph.aws3.ec2;fillColor=#F58534;gradientColor=none;" vertex="1" parent="czcv2t2Blam9nqMaoSHN-10">
          <mxGeometry x="120.82999999999998" y="114.77" width="49.35" height="60" as="geometry" />
        </mxCell>
        <mxCell id="czcv2t2Blam9nqMaoSHN-27" style="edgeStyle=orthogonalEdgeStyle;rounded=0;orthogonalLoop=1;jettySize=auto;html=1;exitX=0.5;exitY=1;exitDx=0;exitDy=0;exitPerimeter=0;curved=1;strokeColor=#0000FF;entryX=1;entryY=0.5;entryDx=0;entryDy=0;entryPerimeter=0;opacity=50;" edge="1" parent="1" source="czcv2t2Blam9nqMaoSHN-11" target="czcv2t2Blam9nqMaoSHN-21">
          <mxGeometry relative="1" as="geometry" />
        </mxCell>
        <mxCell id="czcv2t2Blam9nqMaoSHN-28" style="edgeStyle=orthogonalEdgeStyle;rounded=0;orthogonalLoop=1;jettySize=auto;html=1;exitX=0.5;exitY=1;exitDx=0;exitDy=0;exitPerimeter=0;curved=1;strokeColor=#0000FF;entryX=0;entryY=0.5;entryDx=0;entryDy=0;entryPerimeter=0;opacity=50;" edge="1" parent="1" source="czcv2t2Blam9nqMaoSHN-11" target="czcv2t2Blam9nqMaoSHN-20">
          <mxGeometry relative="1" as="geometry" />
        </mxCell>
        <mxCell id="czcv2t2Blam9nqMaoSHN-11" value="&amp;nbsp; ec2-elb&amp;nbsp;&amp;nbsp;" style="outlineConnect=0;dashed=0;verticalLabelPosition=bottom;verticalAlign=top;align=center;html=1;shape=mxgraph.aws3.application_load_balancer;fillColor=#F58534;gradientColor=none;labelBackgroundColor=default;labelBorderColor=none;" vertex="1" parent="1">
          <mxGeometry x="-200.13000000000002" y="258" width="40.25" height="42" as="geometry" />
        </mxCell>
        <mxCell id="czcv2t2Blam9nqMaoSHN-22" value="browser&lt;br&gt;(app client)" style="image;aspect=fixed;html=1;points=[];align=center;fontSize=12;image=img/lib/azure2/general/Browser.svg;labelPosition=center;verticalLabelPosition=top;verticalAlign=bottom;" vertex="1" parent="1">
          <mxGeometry x="-360" y="-200" width="65" height="52" as="geometry" />
        </mxCell>
        <mxCell id="czcv2t2Blam9nqMaoSHN-20" value="app-dynamicsite&lt;br&gt;(app server)" style="outlineConnect=0;dashed=0;verticalLabelPosition=bottom;verticalAlign=top;align=center;html=1;shape=mxgraph.aws3.ec2;fillColor=#F58534;gradientColor=none;" vertex="1" parent="1">
          <mxGeometry y="555" width="49.35" height="60" as="geometry" />
        </mxCell>
        <mxCell id="czcv2t2Blam9nqMaoSHN-29" style="edgeStyle=orthogonalEdgeStyle;rounded=0;orthogonalLoop=1;jettySize=auto;html=1;exitX=0.5;exitY=0;exitDx=0;exitDy=0;exitPerimeter=0;entryX=0.5;entryY=1;entryDx=0;entryDy=0;entryPerimeter=0;curved=1;strokeColor=#FF3333;opacity=50;" edge="1" parent="1" source="czcv2t2Blam9nqMaoSHN-21" target="czcv2t2Blam9nqMaoSHN-1">
          <mxGeometry relative="1" as="geometry" />
        </mxCell>
        <mxCell id="czcv2t2Blam9nqMaoSHN-30" style="edgeStyle=orthogonalEdgeStyle;rounded=0;orthogonalLoop=1;jettySize=auto;html=1;exitX=0.5;exitY=0;exitDx=0;exitDy=0;exitPerimeter=0;entryX=0;entryY=0.5;entryDx=0;entryDy=0;entryPerimeter=0;curved=1;strokeColor=#FF3333;opacity=50;" edge="1" parent="1" source="czcv2t2Blam9nqMaoSHN-1" target="N_aPm0FDeAfyOkNH4oF6-17">
          <mxGeometry relative="1" as="geometry">
            <mxPoint x="-220" y="140" as="targetPoint" />
          </mxGeometry>
        </mxCell>
        <mxCell id="czcv2t2Blam9nqMaoSHN-34" style="edgeStyle=orthogonalEdgeStyle;rounded=0;orthogonalLoop=1;jettySize=auto;html=1;exitX=0.5;exitY=0;exitDx=0;exitDy=0;exitPerimeter=0;entryX=0.5;entryY=1;entryDx=0;entryDy=0;entryPerimeter=0;strokeColor=#FF3333;opacity=50;" edge="1" parent="1" source="czcv2t2Blam9nqMaoSHN-20" target="czcv2t2Blam9nqMaoSHN-8">
          <mxGeometry relative="1" as="geometry" />
        </mxCell>
        <mxCell id="czcv2t2Blam9nqMaoSHN-35" style="edgeStyle=orthogonalEdgeStyle;rounded=0;orthogonalLoop=1;jettySize=auto;html=1;exitX=0.5;exitY=0;exitDx=0;exitDy=0;exitPerimeter=0;entryX=1;entryY=0.5;entryDx=0;entryDy=0;entryPerimeter=0;curved=1;strokeColor=#FF3333;opacity=50;" edge="1" parent="1" source="czcv2t2Blam9nqMaoSHN-8" target="N_aPm0FDeAfyOkNH4oF6-17">
          <mxGeometry relative="1" as="geometry" />
        </mxCell>
        <mxCell id="czcv2t2Blam9nqMaoSHN-39" style="edgeStyle=orthogonalEdgeStyle;rounded=0;orthogonalLoop=1;jettySize=auto;html=1;exitX=0;exitY=0.25;exitDx=0;exitDy=0;entryX=0.511;entryY=1.08;entryDx=0;entryDy=0;entryPerimeter=0;curved=1;endArrow=none;endFill=0;startArrow=classic;startFill=1;strokeColor=#0000FF;opacity=50;" edge="1" parent="1" source="N_aPm0FDeAfyOkNH4oF6-28" target="czcv2t2Blam9nqMaoSHN-22">
          <mxGeometry relative="1" as="geometry" />
        </mxCell>
        <mxCell id="czcv2t2Blam9nqMaoSHN-42" value="repo da app" style="dashed=0;outlineConnect=0;html=1;align=center;labelPosition=center;verticalLabelPosition=top;verticalAlign=bottom;shape=mxgraph.weblogos.github" vertex="1" parent="1">
          <mxGeometry x="-50" y="-200" width="50" height="50" as="geometry" />
        </mxCell>
        <mxCell id="czcv2t2Blam9nqMaoSHN-43" style="edgeStyle=orthogonalEdgeStyle;rounded=0;orthogonalLoop=1;jettySize=auto;html=1;exitX=1;exitY=0.25;exitDx=0;exitDy=0;entryX=0.493;entryY=1.076;entryDx=0;entryDy=0;entryPerimeter=0;curved=1;strokeColor=#FF3333;opacity=50;" edge="1" parent="1" source="N_aPm0FDeAfyOkNH4oF6-28" target="czcv2t2Blam9nqMaoSHN-42">
          <mxGeometry relative="1" as="geometry" />
        </mxCell>
        <mxCell id="czcv2t2Blam9nqMaoSHN-44" value="&amp;nbsp; fluxo de deploy da app" style="endArrow=none;html=1;rounded=0;strokeColor=#FF3333;opacity=50;labelPosition=right;verticalLabelPosition=middle;align=left;verticalAlign=middle;fontSize=14;" edge="1" parent="1">
          <mxGeometry width="50" height="50" relative="1" as="geometry">
            <mxPoint x="79.17000000000002" y="-83.7" as="sourcePoint" />
            <mxPoint x="159.17000000000002" y="-83.7" as="targetPoint" />
          </mxGeometry>
        </mxCell>
        <mxCell id="czcv2t2Blam9nqMaoSHN-45" value="&amp;nbsp; fluxo de acesso á app" style="endArrow=none;html=1;rounded=0;strokeColor=#0000FF;opacity=50;labelPosition=right;verticalLabelPosition=middle;align=left;verticalAlign=middle;fontSize=14;" edge="1" parent="1">
          <mxGeometry width="50" height="50" relative="1" as="geometry">
            <mxPoint x="79.17000000000002" y="-43.7" as="sourcePoint" />
            <mxPoint x="159.17000000000002" y="-43.7" as="targetPoint" />
          </mxGeometry>
        </mxCell>
        <mxCell id="czcv2t2Blam9nqMaoSHN-48" value="user" style="shape=actor;whiteSpace=wrap;html=1;labelPosition=center;verticalLabelPosition=bottom;align=center;verticalAlign=top;" vertex="1" parent="1">
          <mxGeometry x="-380" y="-180" width="40" height="60" as="geometry" />
        </mxCell>
      </root>
    </mxGraphModel>
  </diagram>
  <diagram name="routing tables" id="kyj1cYiUmhXuLhR_BJFE">
    <mxGraphModel dx="388" dy="233" grid="1" gridSize="10" guides="1" tooltips="1" connect="1" arrows="1" fold="1" page="1" pageScale="1" pageWidth="827" pageHeight="1169" math="0" shadow="0">
      <root>
        <mxCell id="8iGOETWJiU1CDV56lgPj-0" />
        <mxCell id="8iGOETWJiU1CDV56lgPj-1" parent="8iGOETWJiU1CDV56lgPj-0" />
        <mxCell id="M6JEdIUTC6ZUlSv-W866-0" value="" style="rounded=0;whiteSpace=wrap;html=1;strokeColor=none;" vertex="1" parent="8iGOETWJiU1CDV56lgPj-1">
          <mxGeometry x="360" y="160" width="520" height="360" as="geometry" />
        </mxCell>
        <mxCell id="8iGOETWJiU1CDV56lgPj-15" value="Subnet Public &lt;br&gt;Routing Table" style="text;html=1;strokeColor=none;fillColor=none;align=left;verticalAlign=middle;whiteSpace=wrap;rounded=1;fontStyle=1;shadow=1;sketch=0;glass=0;" vertex="1" parent="8iGOETWJiU1CDV56lgPj-1">
          <mxGeometry x="400" y="200.25" width="160" height="39.75" as="geometry" />
        </mxCell>
        <mxCell id="8iGOETWJiU1CDV56lgPj-17" value="rt-pub" style="shape=table;startSize=40;container=1;collapsible=1;childLayout=tableLayout;fixedRows=1;rowLines=0;fontStyle=1;align=center;resizeLast=1;fillColor=#f5f5f5;strokeColor=#CCCCCC;spacingLeft=0;fontColor=#666666;" vertex="1" parent="8iGOETWJiU1CDV56lgPj-1">
          <mxGeometry x="400" y="240" width="200" height="100" as="geometry">
            <mxRectangle x="1010" y="180" width="60" height="30" as="alternateBounds" />
          </mxGeometry>
        </mxCell>
        <mxCell id="8iGOETWJiU1CDV56lgPj-18" value="" style="shape=partialRectangle;collapsible=0;dropTarget=0;pointerEvents=0;fillColor=#f5f5f5;top=0;left=0;bottom=1;right=0;points=[[0,0.5],[1,0.5]];portConstraint=eastwest;strokeColor=#CCCCCC;align=center;spacingLeft=0;fontColor=#666666;textOpacity=50;" vertex="1" parent="8iGOETWJiU1CDV56lgPj-17">
          <mxGeometry y="40" width="200" height="40" as="geometry" />
        </mxCell>
        <mxCell id="8iGOETWJiU1CDV56lgPj-19" value="destino" style="shape=partialRectangle;connectable=0;fillColor=none;top=0;left=0;bottom=0;right=0;fontStyle=1;overflow=hidden;strokeColor=#CCCCCC;align=center;spacingLeft=0;fontColor=#666666;" vertex="1" parent="8iGOETWJiU1CDV56lgPj-18">
          <mxGeometry width="80" height="40" as="geometry">
            <mxRectangle width="80" height="40" as="alternateBounds" />
          </mxGeometry>
        </mxCell>
        <mxCell id="8iGOETWJiU1CDV56lgPj-20" value="caminho" style="shape=partialRectangle;connectable=0;fillColor=none;top=0;left=0;bottom=0;right=0;align=center;spacingLeft=0;fontStyle=1;overflow=hidden;strokeColor=#CCCCCC;fontColor=#666666;" vertex="1" parent="8iGOETWJiU1CDV56lgPj-18">
          <mxGeometry x="80" width="120" height="40" as="geometry">
            <mxRectangle width="120" height="40" as="alternateBounds" />
          </mxGeometry>
        </mxCell>
        <mxCell id="8iGOETWJiU1CDV56lgPj-21" value="" style="shape=partialRectangle;collapsible=0;dropTarget=0;pointerEvents=0;fillColor=none;top=0;left=0;bottom=1;right=0;points=[[0,0.5],[1,0.5]];portConstraint=eastwest;strokeColor=#CCCCCC;align=center;spacingLeft=0;fontColor=#666666;" vertex="1" parent="8iGOETWJiU1CDV56lgPj-17">
          <mxGeometry y="80" width="200" height="20" as="geometry" />
        </mxCell>
        <mxCell id="8iGOETWJiU1CDV56lgPj-22" value="0.0.0.0/0" style="shape=partialRectangle;connectable=0;fillColor=none;top=0;left=0;bottom=0;right=0;fontStyle=1;overflow=hidden;strokeColor=#CCCCCC;align=center;spacingLeft=0;fontColor=#666666;" vertex="1" parent="8iGOETWJiU1CDV56lgPj-21">
          <mxGeometry width="80" height="20" as="geometry">
            <mxRectangle width="80" height="20" as="alternateBounds" />
          </mxGeometry>
        </mxCell>
        <mxCell id="8iGOETWJiU1CDV56lgPj-23" value="igw" style="shape=partialRectangle;connectable=0;fillColor=none;top=0;left=0;bottom=0;right=0;align=center;spacingLeft=0;fontStyle=1;overflow=hidden;strokeColor=#CCCCCC;fontColor=#666666;" vertex="1" parent="8iGOETWJiU1CDV56lgPj-21">
          <mxGeometry x="80" width="120" height="20" as="geometry">
            <mxRectangle width="120" height="20" as="alternateBounds" />
          </mxGeometry>
        </mxCell>
        <mxCell id="8iGOETWJiU1CDV56lgPj-73" value="rt-priv-az1a" style="shape=table;startSize=40;container=1;collapsible=1;childLayout=tableLayout;fixedRows=1;rowLines=0;fontStyle=1;align=center;resizeLast=1;fillColor=#f5f5f5;strokeColor=#CCCCCC;spacingLeft=0;fontColor=#666666;" vertex="1" parent="8iGOETWJiU1CDV56lgPj-1">
          <mxGeometry x="640" y="240.01999999999998" width="200" height="100" as="geometry">
            <mxRectangle x="1010" y="180" width="60" height="30" as="alternateBounds" />
          </mxGeometry>
        </mxCell>
        <mxCell id="8iGOETWJiU1CDV56lgPj-74" value="" style="shape=partialRectangle;collapsible=0;dropTarget=0;pointerEvents=0;fillColor=#f5f5f5;top=0;left=0;bottom=1;right=0;points=[[0,0.5],[1,0.5]];portConstraint=eastwest;strokeColor=#CCCCCC;align=center;spacingLeft=0;fontColor=#666666;textOpacity=50;" vertex="1" parent="8iGOETWJiU1CDV56lgPj-73">
          <mxGeometry y="40" width="200" height="40" as="geometry" />
        </mxCell>
        <mxCell id="8iGOETWJiU1CDV56lgPj-75" value="destino" style="shape=partialRectangle;connectable=0;fillColor=none;top=0;left=0;bottom=0;right=0;fontStyle=1;overflow=hidden;strokeColor=#CCCCCC;align=center;spacingLeft=0;fontColor=#666666;" vertex="1" parent="8iGOETWJiU1CDV56lgPj-74">
          <mxGeometry width="80" height="40" as="geometry">
            <mxRectangle width="80" height="40" as="alternateBounds" />
          </mxGeometry>
        </mxCell>
        <mxCell id="8iGOETWJiU1CDV56lgPj-76" value="caminho" style="shape=partialRectangle;connectable=0;fillColor=none;top=0;left=0;bottom=0;right=0;align=center;spacingLeft=0;fontStyle=1;overflow=hidden;strokeColor=#CCCCCC;fontColor=#666666;" vertex="1" parent="8iGOETWJiU1CDV56lgPj-74">
          <mxGeometry x="80" width="120" height="40" as="geometry">
            <mxRectangle width="120" height="40" as="alternateBounds" />
          </mxGeometry>
        </mxCell>
        <mxCell id="8iGOETWJiU1CDV56lgPj-77" value="" style="shape=partialRectangle;collapsible=0;dropTarget=0;pointerEvents=0;fillColor=none;top=0;left=0;bottom=1;right=0;points=[[0,0.5],[1,0.5]];portConstraint=eastwest;strokeColor=#CCCCCC;align=center;spacingLeft=0;fontColor=#666666;" vertex="1" parent="8iGOETWJiU1CDV56lgPj-73">
          <mxGeometry y="80" width="200" height="20" as="geometry" />
        </mxCell>
        <mxCell id="8iGOETWJiU1CDV56lgPj-78" value="0.0.0.0/0" style="shape=partialRectangle;connectable=0;fillColor=none;top=0;left=0;bottom=0;right=0;fontStyle=1;overflow=hidden;strokeColor=#CCCCCC;align=center;spacingLeft=0;fontColor=#666666;" vertex="1" parent="8iGOETWJiU1CDV56lgPj-77">
          <mxGeometry width="80" height="20" as="geometry">
            <mxRectangle width="80" height="20" as="alternateBounds" />
          </mxGeometry>
        </mxCell>
        <mxCell id="8iGOETWJiU1CDV56lgPj-79" value="ngw-az1a" style="shape=partialRectangle;connectable=0;fillColor=none;top=0;left=0;bottom=0;right=0;align=center;spacingLeft=0;fontStyle=1;overflow=hidden;strokeColor=#CCCCCC;fontColor=#666666;" vertex="1" parent="8iGOETWJiU1CDV56lgPj-77">
          <mxGeometry x="80" width="120" height="20" as="geometry">
            <mxRectangle width="120" height="20" as="alternateBounds" />
          </mxGeometry>
        </mxCell>
        <mxCell id="8iGOETWJiU1CDV56lgPj-80" value="rt-priv-az1c" style="shape=table;startSize=40;container=1;collapsible=1;childLayout=tableLayout;fixedRows=1;rowLines=0;fontStyle=1;align=center;resizeLast=1;fillColor=#f5f5f5;strokeColor=#CCCCCC;spacingLeft=0;fontColor=#666666;" vertex="1" parent="8iGOETWJiU1CDV56lgPj-1">
          <mxGeometry x="640" y="380.02" width="200" height="100" as="geometry">
            <mxRectangle x="1010" y="180" width="60" height="30" as="alternateBounds" />
          </mxGeometry>
        </mxCell>
        <mxCell id="8iGOETWJiU1CDV56lgPj-81" value="" style="shape=partialRectangle;collapsible=0;dropTarget=0;pointerEvents=0;fillColor=#f5f5f5;top=0;left=0;bottom=1;right=0;points=[[0,0.5],[1,0.5]];portConstraint=eastwest;strokeColor=#CCCCCC;align=center;spacingLeft=0;fontColor=#666666;textOpacity=50;" vertex="1" parent="8iGOETWJiU1CDV56lgPj-80">
          <mxGeometry y="40" width="200" height="40" as="geometry" />
        </mxCell>
        <mxCell id="8iGOETWJiU1CDV56lgPj-82" value="destino" style="shape=partialRectangle;connectable=0;fillColor=none;top=0;left=0;bottom=0;right=0;fontStyle=1;overflow=hidden;strokeColor=#CCCCCC;align=center;spacingLeft=0;fontColor=#666666;" vertex="1" parent="8iGOETWJiU1CDV56lgPj-81">
          <mxGeometry width="80" height="40" as="geometry">
            <mxRectangle width="80" height="40" as="alternateBounds" />
          </mxGeometry>
        </mxCell>
        <mxCell id="8iGOETWJiU1CDV56lgPj-83" value="caminho" style="shape=partialRectangle;connectable=0;fillColor=none;top=0;left=0;bottom=0;right=0;align=center;spacingLeft=0;fontStyle=1;overflow=hidden;strokeColor=#CCCCCC;fontColor=#666666;" vertex="1" parent="8iGOETWJiU1CDV56lgPj-81">
          <mxGeometry x="80" width="120" height="40" as="geometry">
            <mxRectangle width="120" height="40" as="alternateBounds" />
          </mxGeometry>
        </mxCell>
        <mxCell id="8iGOETWJiU1CDV56lgPj-84" value="" style="shape=partialRectangle;collapsible=0;dropTarget=0;pointerEvents=0;fillColor=none;top=0;left=0;bottom=1;right=0;points=[[0,0.5],[1,0.5]];portConstraint=eastwest;strokeColor=#CCCCCC;align=center;spacingLeft=0;fontColor=#666666;" vertex="1" parent="8iGOETWJiU1CDV56lgPj-80">
          <mxGeometry y="80" width="200" height="20" as="geometry" />
        </mxCell>
        <mxCell id="8iGOETWJiU1CDV56lgPj-85" value="0.0.0.0/0" style="shape=partialRectangle;connectable=0;fillColor=none;top=0;left=0;bottom=0;right=0;fontStyle=1;overflow=hidden;strokeColor=#CCCCCC;align=center;spacingLeft=0;fontColor=#666666;" vertex="1" parent="8iGOETWJiU1CDV56lgPj-84">
          <mxGeometry width="80" height="20" as="geometry">
            <mxRectangle width="80" height="20" as="alternateBounds" />
          </mxGeometry>
        </mxCell>
        <mxCell id="8iGOETWJiU1CDV56lgPj-86" value="ngw-az1c" style="shape=partialRectangle;connectable=0;fillColor=none;top=0;left=0;bottom=0;right=0;align=center;spacingLeft=0;fontStyle=1;overflow=hidden;strokeColor=#CCCCCC;fontColor=#666666;" vertex="1" parent="8iGOETWJiU1CDV56lgPj-84">
          <mxGeometry x="80" width="120" height="20" as="geometry">
            <mxRectangle width="120" height="20" as="alternateBounds" />
          </mxGeometry>
        </mxCell>
        <mxCell id="8iGOETWJiU1CDV56lgPj-87" value="Subnets Private&lt;br&gt;Routing Tables" style="text;html=1;strokeColor=none;fillColor=none;align=left;verticalAlign=middle;whiteSpace=wrap;rounded=1;fontStyle=1;shadow=1;sketch=0;glass=0;" vertex="1" parent="8iGOETWJiU1CDV56lgPj-1">
          <mxGeometry x="640" y="200.25" width="160" height="39.77" as="geometry" />
        </mxCell>
      </root>
    </mxGraphModel>
  </diagram>
  <diagram name="security groups" id="5eVh9hAXj93RTuV-kYy0">
    <mxGraphModel dx="874" dy="524" grid="1" gridSize="10" guides="1" tooltips="1" connect="1" arrows="1" fold="1" page="1" pageScale="1" pageWidth="827" pageHeight="1169" math="0" shadow="0">
      <root>
        <mxCell id="WW5T9JLG973O8o0cN4ng-0" />
        <mxCell id="WW5T9JLG973O8o0cN4ng-1" parent="WW5T9JLG973O8o0cN4ng-0" />
        <mxCell id="R4G3e41aNLVJcjIVt3yV-0" value="" style="rounded=0;whiteSpace=wrap;html=1;strokeColor=none;" vertex="1" parent="WW5T9JLG973O8o0cN4ng-1">
          <mxGeometry x="600" y="160" width="600" height="240" as="geometry" />
        </mxCell>
        <mxCell id="WW5T9JLG973O8o0cN4ng-3" value="Load Balancer&lt;br&gt;Security Group" style="text;html=1;strokeColor=none;fillColor=none;align=left;verticalAlign=middle;whiteSpace=wrap;rounded=1;fontStyle=1;shadow=1;sketch=0;glass=0;" vertex="1" parent="WW5T9JLG973O8o0cN4ng-1">
          <mxGeometry x="640" y="200.25" width="240" height="39.75" as="geometry" />
        </mxCell>
        <mxCell id="WW5T9JLG973O8o0cN4ng-11" value="sg-elb" style="shape=table;html=1;whiteSpace=wrap;startSize=40;container=1;collapsible=0;childLayout=tableLayout;strokeColor=#CCCCCC;fillColor=#f5f5f5;align=center;fontStyle=1;spacingLeft=0;fontColor=#666666;gradientColor=none;" vertex="1" parent="WW5T9JLG973O8o0cN4ng-1">
          <mxGeometry x="640" y="240" width="240" height="119.75" as="geometry" />
        </mxCell>
        <mxCell id="WW5T9JLG973O8o0cN4ng-12" value="" style="shape=partialRectangle;html=1;whiteSpace=wrap;collapsible=0;dropTarget=0;pointerEvents=0;fillColor=#f5f5f5;top=0;left=0;bottom=0;right=0;points=[[0,0.5],[1,0.5]];portConstraint=eastwest;spacingLeft=0;align=center;fontColor=#666666;labelBackgroundColor=#f5f5f5;" vertex="1" parent="WW5T9JLG973O8o0cN4ng-11">
          <mxGeometry y="40" width="240" height="40" as="geometry" />
        </mxCell>
        <mxCell id="WW5T9JLG973O8o0cN4ng-13" value="&lt;span style=&quot;font-weight: 700;&quot;&gt;protocol&lt;/span&gt;" style="shape=partialRectangle;html=1;whiteSpace=wrap;connectable=0;fillColor=none;top=0;left=0;bottom=0;right=0;overflow=hidden;spacingLeft=0;align=center;fontColor=#666666;" vertex="1" parent="WW5T9JLG973O8o0cN4ng-12">
          <mxGeometry width="80" height="40" as="geometry">
            <mxRectangle width="80" height="40" as="alternateBounds" />
          </mxGeometry>
        </mxCell>
        <mxCell id="WW5T9JLG973O8o0cN4ng-14" value="&lt;span style=&quot;font-weight: 700;&quot;&gt;ingress&lt;/span&gt;" style="shape=partialRectangle;html=1;whiteSpace=wrap;connectable=0;fillColor=none;top=0;left=0;bottom=0;right=0;overflow=hidden;spacingLeft=0;align=center;fontColor=#666666;" vertex="1" parent="WW5T9JLG973O8o0cN4ng-12">
          <mxGeometry x="80" width="80" height="40" as="geometry">
            <mxRectangle width="80" height="40" as="alternateBounds" />
          </mxGeometry>
        </mxCell>
        <mxCell id="WW5T9JLG973O8o0cN4ng-15" value="&lt;span style=&quot;font-weight: 700;&quot;&gt;egress&lt;/span&gt;" style="shape=partialRectangle;html=1;whiteSpace=wrap;connectable=0;fillColor=none;top=0;left=0;bottom=0;right=0;overflow=hidden;spacingLeft=0;align=center;fontColor=#666666;labelBackgroundColor=none;" vertex="1" parent="WW5T9JLG973O8o0cN4ng-12">
          <mxGeometry x="160" width="80" height="40" as="geometry">
            <mxRectangle width="80" height="40" as="alternateBounds" />
          </mxGeometry>
        </mxCell>
        <mxCell id="WW5T9JLG973O8o0cN4ng-16" value="" style="shape=partialRectangle;html=1;whiteSpace=wrap;collapsible=0;dropTarget=0;pointerEvents=0;fillColor=none;top=0;left=0;bottom=0;right=0;points=[[0,0.5],[1,0.5]];portConstraint=eastwest;spacingLeft=0;align=center;fontColor=#666666;" vertex="1" parent="WW5T9JLG973O8o0cN4ng-11">
          <mxGeometry y="80" width="240" height="20" as="geometry" />
        </mxCell>
        <mxCell id="WW5T9JLG973O8o0cN4ng-17" value="&lt;span style=&quot;font-weight: 700;&quot;&gt;http&lt;/span&gt;" style="shape=partialRectangle;html=1;whiteSpace=wrap;connectable=0;fillColor=none;top=0;left=0;bottom=0;right=0;overflow=hidden;spacingLeft=0;align=center;fontColor=#666666;" vertex="1" parent="WW5T9JLG973O8o0cN4ng-16">
          <mxGeometry width="80" height="20" as="geometry">
            <mxRectangle width="80" height="20" as="alternateBounds" />
          </mxGeometry>
        </mxCell>
        <mxCell id="WW5T9JLG973O8o0cN4ng-18" value="&lt;span style=&quot;font-weight: 700;&quot;&gt;0.0.0.0/0&lt;/span&gt;" style="shape=partialRectangle;html=1;whiteSpace=wrap;connectable=0;fillColor=none;top=0;left=0;bottom=0;right=0;overflow=hidden;spacingLeft=0;align=center;fontColor=#666666;" vertex="1" parent="WW5T9JLG973O8o0cN4ng-16">
          <mxGeometry x="80" width="80" height="20" as="geometry">
            <mxRectangle width="80" height="20" as="alternateBounds" />
          </mxGeometry>
        </mxCell>
        <mxCell id="WW5T9JLG973O8o0cN4ng-19" value="-" style="shape=partialRectangle;html=1;whiteSpace=wrap;connectable=0;fillColor=none;top=0;left=0;bottom=0;right=0;overflow=hidden;spacingLeft=0;align=center;fontColor=#666666;" vertex="1" parent="WW5T9JLG973O8o0cN4ng-16">
          <mxGeometry x="160" width="80" height="20" as="geometry">
            <mxRectangle width="80" height="20" as="alternateBounds" />
          </mxGeometry>
        </mxCell>
        <mxCell id="WW5T9JLG973O8o0cN4ng-20" value="" style="shape=partialRectangle;html=1;whiteSpace=wrap;collapsible=0;dropTarget=0;pointerEvents=0;fillColor=none;top=0;left=0;bottom=0;right=0;points=[[0,0.5],[1,0.5]];portConstraint=eastwest;spacingLeft=0;align=center;fontColor=#666666;" vertex="1" parent="WW5T9JLG973O8o0cN4ng-11">
          <mxGeometry y="100" width="240" height="20" as="geometry" />
        </mxCell>
        <mxCell id="WW5T9JLG973O8o0cN4ng-21" value="&lt;span style=&quot;font-weight: 700;&quot;&gt;all trafic&lt;/span&gt;" style="shape=partialRectangle;html=1;whiteSpace=wrap;connectable=0;fillColor=none;top=0;left=0;bottom=0;right=0;overflow=hidden;spacingLeft=0;align=center;fontColor=#666666;" vertex="1" parent="WW5T9JLG973O8o0cN4ng-20">
          <mxGeometry width="80" height="20" as="geometry">
            <mxRectangle width="80" height="20" as="alternateBounds" />
          </mxGeometry>
        </mxCell>
        <mxCell id="WW5T9JLG973O8o0cN4ng-22" value="&lt;span style=&quot;font-weight: 700;&quot;&gt;-&lt;/span&gt;" style="shape=partialRectangle;html=1;whiteSpace=wrap;connectable=0;fillColor=none;top=0;left=0;bottom=0;right=0;overflow=hidden;spacingLeft=0;align=center;fontColor=#666666;" vertex="1" parent="WW5T9JLG973O8o0cN4ng-20">
          <mxGeometry x="80" width="80" height="20" as="geometry">
            <mxRectangle width="80" height="20" as="alternateBounds" />
          </mxGeometry>
        </mxCell>
        <mxCell id="WW5T9JLG973O8o0cN4ng-23" value="&lt;span style=&quot;font-weight: 700;&quot;&gt;0.0.0.0/0&lt;/span&gt;" style="shape=partialRectangle;html=1;whiteSpace=wrap;connectable=0;fillColor=none;top=0;left=0;bottom=0;right=0;overflow=hidden;spacingLeft=0;align=center;fontColor=#666666;" vertex="1" parent="WW5T9JLG973O8o0cN4ng-20">
          <mxGeometry x="160" width="80" height="20" as="geometry">
            <mxRectangle width="80" height="20" as="alternateBounds" />
          </mxGeometry>
        </mxCell>
        <mxCell id="WW5T9JLG973O8o0cN4ng-24" value="sg-ec2" style="shape=table;html=1;whiteSpace=wrap;startSize=40;container=1;collapsible=0;childLayout=tableLayout;strokeColor=#CCCCCC;fillColor=#f5f5f5;align=center;fontStyle=1;spacingLeft=0;fontColor=#666666;gradientColor=none;" vertex="1" parent="WW5T9JLG973O8o0cN4ng-1">
          <mxGeometry x="920" y="240.01999999999998" width="240" height="119.75" as="geometry" />
        </mxCell>
        <mxCell id="WW5T9JLG973O8o0cN4ng-25" value="" style="shape=partialRectangle;html=1;whiteSpace=wrap;collapsible=0;dropTarget=0;pointerEvents=0;fillColor=#f5f5f5;top=0;left=0;bottom=0;right=0;points=[[0,0.5],[1,0.5]];portConstraint=eastwest;spacingLeft=0;align=center;fontColor=#666666;labelBackgroundColor=#f5f5f5;" vertex="1" parent="WW5T9JLG973O8o0cN4ng-24">
          <mxGeometry y="40" width="240" height="40" as="geometry" />
        </mxCell>
        <mxCell id="WW5T9JLG973O8o0cN4ng-26" value="&lt;span style=&quot;font-weight: 700;&quot;&gt;protocol&lt;/span&gt;" style="shape=partialRectangle;html=1;whiteSpace=wrap;connectable=0;fillColor=none;top=0;left=0;bottom=0;right=0;overflow=hidden;spacingLeft=0;align=center;fontColor=#666666;" vertex="1" parent="WW5T9JLG973O8o0cN4ng-25">
          <mxGeometry width="80" height="40" as="geometry">
            <mxRectangle width="80" height="40" as="alternateBounds" />
          </mxGeometry>
        </mxCell>
        <mxCell id="WW5T9JLG973O8o0cN4ng-27" value="&lt;span style=&quot;font-weight: 700;&quot;&gt;ingress&lt;/span&gt;" style="shape=partialRectangle;html=1;whiteSpace=wrap;connectable=0;fillColor=none;top=0;left=0;bottom=0;right=0;overflow=hidden;spacingLeft=0;align=center;fontColor=#666666;" vertex="1" parent="WW5T9JLG973O8o0cN4ng-25">
          <mxGeometry x="80" width="80" height="40" as="geometry">
            <mxRectangle width="80" height="40" as="alternateBounds" />
          </mxGeometry>
        </mxCell>
        <mxCell id="WW5T9JLG973O8o0cN4ng-28" value="&lt;span style=&quot;font-weight: 700;&quot;&gt;egress&lt;/span&gt;" style="shape=partialRectangle;html=1;whiteSpace=wrap;connectable=0;fillColor=none;top=0;left=0;bottom=0;right=0;overflow=hidden;spacingLeft=0;align=center;fontColor=#666666;labelBackgroundColor=none;" vertex="1" parent="WW5T9JLG973O8o0cN4ng-25">
          <mxGeometry x="160" width="80" height="40" as="geometry">
            <mxRectangle width="80" height="40" as="alternateBounds" />
          </mxGeometry>
        </mxCell>
        <mxCell id="WW5T9JLG973O8o0cN4ng-29" value="" style="shape=partialRectangle;html=1;whiteSpace=wrap;collapsible=0;dropTarget=0;pointerEvents=0;fillColor=none;top=0;left=0;bottom=0;right=0;points=[[0,0.5],[1,0.5]];portConstraint=eastwest;spacingLeft=0;align=center;fontColor=#666666;" vertex="1" parent="WW5T9JLG973O8o0cN4ng-24">
          <mxGeometry y="80" width="240" height="20" as="geometry" />
        </mxCell>
        <mxCell id="WW5T9JLG973O8o0cN4ng-30" value="&lt;span style=&quot;font-weight: 700;&quot;&gt;http&lt;/span&gt;" style="shape=partialRectangle;html=1;whiteSpace=wrap;connectable=0;fillColor=none;top=0;left=0;bottom=0;right=0;overflow=hidden;spacingLeft=0;align=center;fontColor=#666666;" vertex="1" parent="WW5T9JLG973O8o0cN4ng-29">
          <mxGeometry width="80" height="20" as="geometry">
            <mxRectangle width="80" height="20" as="alternateBounds" />
          </mxGeometry>
        </mxCell>
        <mxCell id="WW5T9JLG973O8o0cN4ng-31" value="&lt;span style=&quot;font-weight: 700;&quot;&gt;10.0.0.0/16&lt;/span&gt;" style="shape=partialRectangle;html=1;whiteSpace=wrap;connectable=0;fillColor=none;top=0;left=0;bottom=0;right=0;overflow=hidden;spacingLeft=0;align=center;fontColor=#666666;" vertex="1" parent="WW5T9JLG973O8o0cN4ng-29">
          <mxGeometry x="80" width="80" height="20" as="geometry">
            <mxRectangle width="80" height="20" as="alternateBounds" />
          </mxGeometry>
        </mxCell>
        <mxCell id="WW5T9JLG973O8o0cN4ng-32" value="-" style="shape=partialRectangle;html=1;whiteSpace=wrap;connectable=0;fillColor=none;top=0;left=0;bottom=0;right=0;overflow=hidden;spacingLeft=0;align=center;fontColor=#666666;" vertex="1" parent="WW5T9JLG973O8o0cN4ng-29">
          <mxGeometry x="160" width="80" height="20" as="geometry">
            <mxRectangle width="80" height="20" as="alternateBounds" />
          </mxGeometry>
        </mxCell>
        <mxCell id="WW5T9JLG973O8o0cN4ng-33" value="" style="shape=partialRectangle;html=1;whiteSpace=wrap;collapsible=0;dropTarget=0;pointerEvents=0;fillColor=none;top=0;left=0;bottom=0;right=0;points=[[0,0.5],[1,0.5]];portConstraint=eastwest;spacingLeft=0;align=center;fontColor=#666666;" vertex="1" parent="WW5T9JLG973O8o0cN4ng-24">
          <mxGeometry y="100" width="240" height="20" as="geometry" />
        </mxCell>
        <mxCell id="WW5T9JLG973O8o0cN4ng-34" value="&lt;span style=&quot;font-weight: 700;&quot;&gt;all trafic&lt;/span&gt;" style="shape=partialRectangle;html=1;whiteSpace=wrap;connectable=0;fillColor=none;top=0;left=0;bottom=0;right=0;overflow=hidden;spacingLeft=0;align=center;fontColor=#666666;" vertex="1" parent="WW5T9JLG973O8o0cN4ng-33">
          <mxGeometry width="80" height="20" as="geometry">
            <mxRectangle width="80" height="20" as="alternateBounds" />
          </mxGeometry>
        </mxCell>
        <mxCell id="WW5T9JLG973O8o0cN4ng-35" value="&lt;span style=&quot;font-weight: 700;&quot;&gt;-&lt;/span&gt;" style="shape=partialRectangle;html=1;whiteSpace=wrap;connectable=0;fillColor=none;top=0;left=0;bottom=0;right=0;overflow=hidden;spacingLeft=0;align=center;fontColor=#666666;" vertex="1" parent="WW5T9JLG973O8o0cN4ng-33">
          <mxGeometry x="80" width="80" height="20" as="geometry">
            <mxRectangle width="80" height="20" as="alternateBounds" />
          </mxGeometry>
        </mxCell>
        <mxCell id="WW5T9JLG973O8o0cN4ng-36" value="&lt;span style=&quot;font-weight: 700;&quot;&gt;0.0.0.0/0&lt;/span&gt;" style="shape=partialRectangle;html=1;whiteSpace=wrap;connectable=0;fillColor=none;top=0;left=0;bottom=0;right=0;overflow=hidden;spacingLeft=0;align=center;fontColor=#666666;" vertex="1" parent="WW5T9JLG973O8o0cN4ng-33">
          <mxGeometry x="160" width="80" height="20" as="geometry">
            <mxRectangle width="80" height="20" as="alternateBounds" />
          </mxGeometry>
        </mxCell>
        <mxCell id="WW5T9JLG973O8o0cN4ng-52" value="EC2 Instances&lt;br&gt;Security Group" style="text;html=1;strokeColor=none;fillColor=none;align=left;verticalAlign=middle;whiteSpace=wrap;rounded=1;fontStyle=1;shadow=1;sketch=0;glass=0;" vertex="1" parent="WW5T9JLG973O8o0cN4ng-1">
          <mxGeometry x="920" y="200.25" width="240" height="39.75" as="geometry" />
        </mxCell>
      </root>
    </mxGraphModel>
  </diagram>
</mxfile>
